<svg version="1" xmlns="http://www.w3.org/2000/svg" width="425.333" height="425.333" viewBox="0 0 319.000000 319.000000"><path d="M42.8 2.1c-11.7 1.7-23.2 9.5-29.6 20.1C6.9 32.8 7 29.4 7 158.6c0 80.5.3 118.9 1.1 123 2.5 13.6 10.4 24.1 22.7 30.1l7.6 3.8h219.1l6.8-3.2c12.7-6 21.4-17.6 23.6-31.4.6-3.6 1.1-23.2 1.1-45.2v-38.9l5.6-6.1c6.3-7 13.6-21 15.3-29.5 1.5-7.4 1.3-21.5-.4-28.7-2.6-11.2-9.2-23.1-16.9-30.4l-3.6-3.5V71.1c0-15.2-.5-30.5-1-34.1-1.5-8.9-5.3-16.5-11.9-23.1-6.7-6.6-14.5-10.5-23.8-11.9C244 .8 51.1.9 42.8 2.1zm218.3 9c7.9 3.7 13.3 9 17.1 16.7l3.3 6.7.3 29.3.3 29.3-5.8-3c-3.2-1.6-7.7-3.4-10-4.1l-4.3-1.3-.2-19.6-.3-19.6h-227v227h227l.3-31.2.2-31.2 3.8-1.2c2-.6 6.3-2.5 9.4-4 3.2-1.6 6-2.9 6.3-2.9.3 0 .5 18.3.3 40.8l-.3 40.7-3.3 6.7c-3.7 7.7-9 12.8-17.2 16.7l-5.5 2.6h-215l-5.5-2.6c-8.2-3.9-13.5-9-17.2-16.7l-3.3-6.7v-250l2.7-5.2c5.2-9.7 12.2-15.7 22.1-18.9 3.4-1 24.5-1.2 110.2-1.1l106 .2 5.6 2.6zM256 67v16h-7.7c-31.2.1-57.5 21.1-63.9 51l-1.7 7.9-2.3-5.5c-11.4-28.1-42.1-44.8-71.5-39-24.6 4.9-44.3 23.5-50.5 47.6-2.1 8.3-2.1 22.6 0 31 4.4 17.7 17.6 34.1 33.7 41.8 11.8 5.7 15.8 6.6 28.9 6.6 9.7 0 12.7-.5 19.5-2.7 22.5-7.4 38.9-26.1 43.5-49.5l1.3-6.3 2.2 5.4c8.2 20.4 26.9 35.4 48.8 39.4 4.7.8 10.6 1.2 14 .9l5.7-.6v56H40V51h216v16zm7.6 25.1c12.6 3.8 22.3 10.7 30.1 21.2 2.3 3.3 4.3 6.3 4.3 6.8s-1.7.1-3.7-1c-14.4-7.2-36.7-10-53.4-6.6-15.8 3.2-31.2 10.6-44.7 21.5l-6.3 5.1.7-3.8c1.1-6.4 5.1-15.1 9.8-21.8 7.2-10 17.7-17.4 30.6-21.6 8.1-2.6 23.7-2.5 32.6.2zm-124.2 13.7c12.2 4.5 25.1 14.7 30.4 24l2.2 4-8.2-3.3c-31.3-12.7-66-6.2-95 17.8-4.2 3.4-4.8 3.6-4.8 1.8 0-3 4.2-14.1 7.5-19.7 6.4-11.1 21.3-22.2 34.6-25.9 8-2.2 25.6-1.5 33.3 1.3zM265 117.5c0 .2-1.7 1.3-3.9 2.4-5.4 2.8-12.3 10.8-14.5 17-2.7 7.6-1.9 17.9 2 25 5.8 10.8 15.9 16.6 28.4 16.5 8.1-.1 14.1-2.6 20.5-8.5 4.4-4.1 4.5-4.1 3.5-1.3-4.8 12.5-15.8 24.3-28.2 30.2-9.7 4.7-16.1 6.2-26.1 6.2-29.1 0-52.9-21.6-57.1-51.9-.6-4.2-.5-4.5 3.6-8.3 13.6-12.7 32.9-22.9 49.8-26.3 6.3-1.3 22-2 22-1zm-127 13.3c0 .5-1.1 1.4-2.4 2-4.3 1.9-10.7 8.4-13.4 13.6-2.3 4.4-2.7 6.3-2.7 14.1s.4 9.7 2.7 14.1c5.7 10.8 15.7 16.9 27.8 16.9 8.9 0 15.4-2.6 21.3-8.3 2-2 3.7-3.2 3.7-2.8 0 .4-1.6 3.9-3.6 7.7-7 13.3-21.3 24.5-36 28.3-7.8 2-21.2 2.1-28.7.1-22-5.7-39.2-24.4-42.8-46.4l-1.2-7.4 6.3-6c14.1-13.3 33.7-23 51.5-25.6 8-1.2 17.5-1.3 17.5-.3z"/><path d="M223.5 64.7c-5.8.8-13.9 3.5-20.9 7-9 4.5-21.7 17.1-26.4 25.9-3.7 7.1-3.9 8.9-1.3 10.3 2.3 1.3 3.8-.3 7.2-7.4 1.3-2.8 5.7-8.3 9.9-12.5 8.1-8.2 15.8-12.7 26.5-15.5 6.4-1.6 19.8-2 25.7-.6 4.1 1 6.2-.4 5.6-3.6-.6-3.1-15.2-5.1-26.3-3.6zM91.2 79.4c-10.4 2.6-22 9.3-29.6 17-11.7 11.8-17.7 24.6-11.9 25.4 1.8.3 2.7-.7 5.2-5.5 6.8-13.6 19.7-24.6 34.2-29.3 7.2-2.4 14.9-2.8 30.9-1.7 2.9.2 3.6-.2 3.8-1.9.6-3.9-2.2-4.8-15.2-5.1-7.7-.1-14 .2-17.4 1.1z"/></svg>