<?xml version="1.0" encoding="UTF-8" standalone="no"?>
<svg
   xmlns:dc="http://purl.org/dc/elements/1.1/"
   xmlns:cc="http://creativecommons.org/ns#"
   xmlns:rdf="http://www.w3.org/1999/02/22-rdf-syntax-ns#"
   xmlns:svg="http://www.w3.org/2000/svg"
   xmlns="http://www.w3.org/2000/svg"
   xmlns:sodipodi="http://sodipodi.sourceforge.net/DTD/sodipodi-0.dtd"
   xmlns:inkscape="http://www.inkscape.org/namespaces/inkscape"
   inkscape:version="1.0 (4035a4f, 2020-05-01)"
   sodipodi:docname="difenn.svg"
   xml:space="preserve"
   enable-background="new 0 0 1683.78 1190.55"
   viewBox="0 0 390.03964 269.239"
   height="269.23901"
   width="390.03964"
   y="0px"
   x="0px"
   id="Calque_1"
   version="1.1"><metadata
   id="metadata138"><rdf:RDF><cc:Work
       rdf:about=""><dc:format>image/svg+xml</dc:format><dc:type
         rdf:resource="http://purl.org/dc/dcmitype/StillImage" /><dc:title></dc:title></cc:Work></rdf:RDF></metadata><defs
   id="defs136" /><sodipodi:namedview
   inkscape:current-layer="Calque_1"
   inkscape:window-maximized="1"
   inkscape:window-y="23"
   inkscape:window-x="0"
   inkscape:cy="122.2906"
   inkscape:cx="127.99689"
   inkscape:zoom="0.51656795"
   fit-margin-bottom="10"
   fit-margin-right="10"
   fit-margin-left="10"
   fit-margin-top="10"
   showgrid="false"
   id="namedview134"
   inkscape:window-height="823"
   inkscape:window-width="1440"
   inkscape:pageshadow="2"
   inkscape:pageopacity="0"
   guidetolerance="10"
   gridtolerance="10"
   objecttolerance="10"
   borderopacity="1"
   bordercolor="#666666"
   pagecolor="#ffffff" />
<g
   transform="translate(-53.767,-147.761)"
   id="g109">
	<path
   id="path101"
   d="m 106.753,381.106 c -12.064,0 -22.167,-4.162 -30.312,-12.484 -8.45,-8.63 -12.674,-18.868 -12.674,-30.714 0,-12.064 4.191,-22.335 12.576,-30.812 8.383,-8.476 18.521,-12.715 30.41,-12.715 6.49,0 12.152,1.167 16.985,3.501 3.527,1.717 8.23,5.064 14.111,10.04 l -0.224,-86.602 h 14.992 l -0.136,162.956 h -14.632 v -16.379 l -0.719,0.726 c -8.231,8.321 -18.357,12.483 -30.377,12.483 z M 84.915,315.073 c -0.218,0.221 -0.521,0.486 -0.914,0.795 -5.048,5.119 -7.571,12.465 -7.571,22.04 0,9.443 2.719,17.012 8.159,22.703 5.483,5.825 12.858,8.737 22.127,8.737 8.616,0 16.056,-3.089 22.322,-9.267 6.266,-6.178 9.399,-13.568 9.399,-22.174 0,-4.146 -0.871,-8.317 -2.611,-12.51 -1.828,-4.456 -4.243,-7.897 -7.245,-10.325 -5.875,-5.957 -13.163,-8.935 -21.866,-8.935 -8.659,10e-4 -15.925,2.979 -21.8,8.936 z"
   fill="#29235c" />
	<path
   id="path103"
   d="m 182.32,221.319 v 13.629 h -15.037 v -13.629 z m 0,40.814 v 90.372 h -15.037 v -90.372 z"
   fill="#a3195b" />
	<path
   id="path105"
   d="m 215.505,170.947 v 70.814 h 18.815 v 13.186 h -18.815 v 77.185 H 200.69 v -77.185 h -18.37 v -13.186 h 18.37 v -84 h 38.444 v 13.186 z"
   fill="#f9b233" />
	<path
   id="path107"
   d="m 287.175,353.047 h -61.846 v -90.37 l 46.493,0.098 -0.011,12.993 -32.038,0.094 v 25.185 l 32.775,-0.094 -0.125,13.286 -32.651,-0.007 v 25.111 l 47.401,0.148 v 13.556 z"
   fill="#84a982" />
</g>
<rect
   id="rect111"
   height="43"
   width="248.33299"
   fill="none"
   y="216.23901"
   x="114.51601" />
<text
   y="223.9509"
   x="114.5162"
   id="text125"><tspan
     id="tspan113"
     font-size="16px"
     font-family="MEAN26Sans"
     y="223.9509"
     x="114.5162">   des outils pour prevenir</tspan><tspan
     id="tspan115"
     letter-spacing="-3"
     font-size="16px"
     font-family="MEAN26Sans"
     y="223.9509"
     x="293.7912">	</tspan><tspan
     id="tspan117"
     letter-spacing="31"
     font-size="16px"
     font-family="MEAN26Sans"
     y="223.9509"
     x="294.5152">	</tspan><tspan
     id="tspan119"
     font-size="16px"
     font-family="MEAN26Sans"
     y="223.9509"
     x="330.5152"> </tspan><tspan
     id="tspan121"
     letter-spacing="31"
     font-size="16px"
     font-family="MEAN26Sans"
     y="236.9509"
     x="114.5162">		</tspan><tspan
     id="tspan123"
     font-size="16px"
     font-family="MEAN26Sans"
     y="236.9509"
     x="186.5162">    les violences sexistes</tspan></text>
<line
   id="line127"
   y2="213.23901"
   x2="255.444"
   y1="215.23901"
   x1="252.12201"
   stroke-miterlimit="10"
   stroke-width="0.935"
   stroke="#000000"
   fill="none" />
<path
   id="path129"
   d="m 301.566,91.463 v 97.627 l -8.073,-8.477 -58.927,-64.532 v 66.191 l -11.105,0.003 V 88.277 l 67.271,72.75 V 91.439 Z"
   fill="#934c44" />
<path
   id="path131"
   d="m 353.733,46.763 v 97.627 l -9.073,-8.477 -58.927,-64.53 v 66.19 l -11.105,0.003 V 43.578 l 67.105,72.937 V 46.907 Z"
   fill="#493a61" />
</svg>
