<svg id="Calque_1" data-name="Calque 1" xmlns="http://www.w3.org/2000/svg" viewBox="0 0 794 487.08"><defs><style>.cls-1{fill:#343737;}.cls-2{fill:#a0c410;}.cls-3{fill:#75b626;}.cls-4{fill:#e2000b;}</style></defs><path class="cls-1" d="M165.24,770.07a36.1,36.1,0,0,1-5.73-.44,23.19,23.19,0,0,1-7.83-2.71,16.21,16.21,0,0,1-5.94-6,21.11,21.11,0,0,1-2.63-9.16,45.16,45.16,0,0,1,.43-10,80.26,80.26,0,0,1,1.86-9.53c.7-2.62,1.63-6,2.76-10s1.93-7.05,2.4-9c3-12.41,6.44-24.88,10.12-37.08,7.57-25.75,16.75-52,27.29-78.12a4.14,4.14,0,0,1,2.61-2.35,3.74,3.74,0,0,1,3.52.6,16,16,0,0,1,3.7,3.91,15.7,15.7,0,0,1,1.86,5.18,3.69,3.69,0,0,1-1.47,3.81,4.12,4.12,0,0,1-3.8.59,3.78,3.78,0,0,1-1.94-1.37,844.31,844.31,0,0,0-36.14,115.1c-.24,1-.94,3.64-2.07,7.7s-2,7.28-2.5,9.77a41.94,41.94,0,0,0-.84,8.42,14.35,14.35,0,0,0,1.37,7.11,10,10,0,0,0,2.22,2.72,17.12,17.12,0,0,0,2.63,1.89,8.41,8.41,0,0,0,3,.85c1.5.19,2.67.33,3.52.41a18.71,18.71,0,0,0,3.7-.23c1.85-.24,3.11-.4,3.78-.47.43,0,1.46-.22,3.8-.69,1.91-.38,3-.61,3.33-.69a254.22,254.22,0,0,0,60-19.49,3.58,3.58,0,0,1,4.13.39,4.19,4.19,0,0,1,1.58,3.5,3.71,3.71,0,0,1-2.46,3.31c-26.7,12.44-51.25,19.84-72.94,22C167.47,770,166.34,770.07,165.24,770.07Z" transform="translate(-143 -296.46)"/><path class="cls-1" d="M427.74,731.91a8.18,8.18,0,0,1-7.46-4,12.57,12.57,0,0,1-1.44-9c1.14-6.36,4.47-12.78,9.88-19.08.17-.18.33-.32.49-.46a4,4,0,0,1,4.72-2.31l.07,0a12.56,12.56,0,0,1,8.86,7.7,15.87,15.87,0,0,1,.26,11.94,32.43,32.43,0,0,1-5.55,10c-2.65,3.25-5.73,5-9.17,5.18Zm6.37-26.12c-.34.43-.7.9-1.07,1.42-.69,1-1.5,2.14-2.43,3.53a37.56,37.56,0,0,0-2.36,4,32.64,32.64,0,0,0-1.68,4,7.52,7.52,0,0,0-.45,3.13,2.62,2.62,0,0,0,.82,1.77c.64.57,2.34-.43,4.42-2.62,3.16-3.3,4.86-6.75,5.07-10.25h0A5,5,0,0,0,434.11,705.79Z" transform="translate(-143 -296.46)"/><path class="cls-1" d="M521.43,733.09a16.9,16.9,0,0,1-6.16-1.19,16.67,16.67,0,0,1-7.62-6.34,21.75,21.75,0,0,1-2.82-6.5,35.64,35.64,0,0,1-1.17-7v-.18a69.63,69.63,0,0,1-5.74,5.12c-5.89,4.7-11.7,7.21-17.27,7.46h0a13.89,13.89,0,0,1-4.85-.75,8.29,8.29,0,0,1-5.47-5.31,25.3,25.3,0,0,1-1-2.85c-5.64,9.55-10.93,13.85-16.1,13.12a7.19,7.19,0,0,1-5.68-4.68,19.35,19.35,0,0,1-1.24-8.47,66.75,66.75,0,0,1,.9-8.3c.44-2.44.91-4.56,1.39-6.31a3.7,3.7,0,0,1,3-2.65,4,4,0,0,1,3.59,1.31,4.08,4.08,0,0,1,1,3.92c-1.74,5.89-2.28,10.4-1.64,13.49a2.24,2.24,0,0,0,.7,1.46,2.28,2.28,0,0,0,1.63-.27c1.87-.84,5.14-4.26,10.08-15.71a4,4,0,0,1,3.55-2.4,3.62,3.62,0,0,1,3.8,2.3,17.62,17.62,0,0,1,.86,3l.53,2.76c.15.82.33,1.72.52,2.69a10.2,10.2,0,0,0,.6,2.08,9.87,9.87,0,0,0,1,1.69,2.26,2.26,0,0,0,1,.84,8.93,8.93,0,0,0,2.08.44,6.63,6.63,0,0,0,2.79-.45l.16-.05c3.64-.87,7.49-3.1,11.46-6.62a52,52,0,0,0,9.14-10.37c.06-.5.13-1,.19-1.4.28-1.84.72-4.32,1.3-7.4s.95-5.1,1.11-6.11c.54-3.31,1.15-6.8,1.83-10.38s1.45-7.22,2.36-11.06,1.71-7.12,2.41-9.94,1.61-6.46,2.7-10.92,2-7.89,2.6-10.24a3.44,3.44,0,0,1,4.17-2.66,3.83,3.83,0,0,1,3.48,3.31,45.27,45.27,0,0,1,1,7.46,36.45,36.45,0,0,1-.5,7.2,66.12,66.12,0,0,1-1.44,6.57c-.56,2-1.36,4.43-2.39,7.28a3.47,3.47,0,0,1-2.74,2.45,4.44,4.44,0,0,1-1.14.08,281.69,281.69,0,0,0-6.25,37.1c-.08.62-.22,1.8-.41,3.61s-.35,3.36-.47,4.57-.19,2.58-.23,4.16a22.25,22.25,0,0,0,.27,4.15,7.55,7.55,0,0,0,1,2.69,13.61,13.61,0,0,0,2.15,3.1,15.07,15.07,0,0,0,2.22,2,4.18,4.18,0,0,0,2.11.65l2.8.17a6.51,6.51,0,0,0,2.38-.6q2-.78,2.94-1.08a13.75,13.75,0,0,0,2.59-1.42c1.41-.88,2.29-1.42,2.66-1.62.15-.09.88-.56,4.48-3.14a127.82,127.82,0,0,0,19.61-17.05l.23-.24c.38-1.07.78-2.15,1.2-3.23a3.87,3.87,0,0,1,3.25-2.44,4.2,4.2,0,0,1,3.51,1.33,3.83,3.83,0,0,1,.77,4,77.27,77.27,0,0,0-5.67,30,3.38,3.38,0,0,1-3.63,3.66,4,4,0,0,1-4.17-3.12,3.6,3.6,0,0,1-.16-1.1,79.9,79.9,0,0,1,1-13.88c-.81.75-1.68,1.53-2.6,2.35-3,2.74-5.92,5.08-8.52,7a65.89,65.89,0,0,1-9,5.42,33,33,0,0,1-9.34,3.27A16.53,16.53,0,0,1,521.43,733.09Z" transform="translate(-143 -296.46)"/><path class="cls-1" d="M409.49,783.54a4.36,4.36,0,0,1-1.36-.23,3.56,3.56,0,0,1-2.46-3.23,255.38,255.38,0,0,1-1.42-32.16c.16-11.75.64-22.59,1.42-32.23s1.36-20.32,1.76-32,.3-22.25-.22-31.63a16,16,0,0,1-.19-2.92c0-1.69-.12-3.07-.23-4.23s-.29-2.57-.52-4.14a13,13,0,0,0-.93-3.49c-.37-.81-.66-1-.72-1s-.14,0-.43.22a7.1,7.1,0,0,0-1.65,1.48c-.66.77-1.29,1.59-1.89,2.45a31.8,31.8,0,0,0-1.85,3l-1.64,3c-.42.76-.86,1.62-1.31,2.56-.26.55-.45.94-.55,1.17v.14l-.2.37c-1.14,2-4.28,8.8-9.34,20.07s-9.56,19.95-13.28,25.49a49.39,49.39,0,0,1-3.63,4.38,24,24,0,0,1-4.47,3.71,7.51,7.51,0,0,1-5.95,1.22c-2-.45-3.74-1.93-5.07-4.4a12.84,12.84,0,0,1-1.39-3.85,24.53,24.53,0,0,1-.5-4.21c-.05-1.3-.06-2.65-.06-4v-3.7c-.05-.56-.1-4.07.11-26.56.16-13-.15-23-.92-29.74-2.13-18.68-5.2-19.22-5.55-19.22,0,0-.68.19-2,2.51a50.25,50.25,0,0,0-3.57,8.47c-1.18,3.48-2.26,6.86-3.22,10s-1.84,6.32-2.69,9.52c-.94,3.57-1.18,4.55-1.23,4.82l-.07.33c-7.09,23.91-12.77,45.76-16.88,64.94a313.28,313.28,0,0,0-7,56.19,3.43,3.43,0,0,1-2.29,3.36,4.11,4.11,0,0,1-3.8-.38,4,4,0,0,1-1.87-3.49,236.75,236.75,0,0,1,2.25-25.18c1.25-9,2.52-16.81,3.77-23.06s3-14.51,5.3-24.58c6.32-28,12.7-51.34,18.95-69.23.07-.2.48-1.49,1.22-3.83s1.46-4.38,2.1-5.94,1.43-3.33,2.45-5.43a14.71,14.71,0,0,1,3.78-5.14,6.88,6.88,0,0,1,5.21-1.65,8.51,8.51,0,0,1,5.1,2.08,15.76,15.76,0,0,1,3.47,4.12,25.41,25.41,0,0,1,2.33,5.91c.64,2.3,1.12,4.4,1.45,6.26s.6,4.07.84,6.65.37,4.46.41,5.79.1,2.85.18,4.8c.08.77.12,1.34.12,1.6.23,5.8.23,16.19,0,30.79,0,1.12-.14,3.67-.42,7.78a92.22,92.22,0,0,0-.23,10,23.53,23.53,0,0,0,1.26,7c.52,1.57,1,1.95,1.17,2s1.7.11,5.64-6.47c.22-.37.51-.92.88-1.66l.1-.17.47-.71c1.1-2,2.35-4.31,3.67-6.84s2.35-4.59,3.13-6.32,1.9-4.18,3.35-7.39,2.49-5.45,3.14-6.75c.27-.63,1.07-2.57,2.35-5.76s2.54-6.06,3.68-8.43,2.58-5,4.29-7.93a26.71,26.71,0,0,1,5.84-7.13,11.52,11.52,0,0,1,6.84-2.89h0a7.94,7.94,0,0,1,4.39,1.19,8.38,8.38,0,0,1,3,3.54,32.68,32.68,0,0,1,1.61,3.9,24,24,0,0,1,1,4.92c.19,1.9.33,3.39.41,4.45s.16,2.52.24,4.34h0c.08,1.85.12,2.89.12,3.13.39,9,.35,19.61-.12,31.42s-1.07,22.4-1.77,31.47-1.11,19.56-1.23,31.31a242.28,242.28,0,0,0,1.46,31,3.91,3.91,0,0,1-1.69,3.72A4.3,4.3,0,0,1,409.49,783.54Z" transform="translate(-143 -296.46)"/><path class="cls-1" d="M557.52,693.51a3.82,3.82,0,0,1-1.5-.32h0a4,4,0,0,1-2.14-2.09c-.87-2-.22-3.88,1.79-5.18l8.39-5a3.5,3.5,0,0,1,3.24-.15,4,4,0,0,1,.3,7.31L559.26,693A3.43,3.43,0,0,1,557.52,693.51Z" transform="translate(-143 -296.46)"/><path class="cls-1" d="M731.43,774a3.58,3.58,0,0,1-1.75-.48,8.57,8.57,0,0,1-3.47-3.44,24,24,0,0,1-2.14-4.23c-.45-1.22-1-2.88-1.56-4.93s-1-3.24-1.1-3.7c-2.88-8.39-6.88-21.42-11.88-38.69-7.42-25.62-16.31-58.15-26.43-96.69a3.53,3.53,0,0,1,1.23-3.88,4.06,4.06,0,0,1,3.81-.62,4,4,0,0,1,2.81,3c8.65,33,16.47,61.77,23.24,85.43,4.83,17.28,8.93,31,12.2,40.93.17.61.55,2.1,1.15,4.52s1.25,4.81,2,7.2c.08.25.15.49.22.72,2.18-9.55,4.37-18.5,6.51-26.67,2.53-9.67,5.64-20.27,9.24-31.5s7.37-21.74,11.2-31.23,8.42-19.48,13.63-29.62A262.24,262.24,0,0,1,787,611.85a250,250,0,0,1,20.21-25.59,210,210,0,0,1,24.26-23.08,3.53,3.53,0,0,1,4-.56,4.06,4.06,0,0,1,2.37,2.92,4,4,0,0,1-1.27,3.7l-.12.11a208.26,208.26,0,0,0-23.89,22.95,243.4,243.4,0,0,0-19.89,25.49A259.85,259.85,0,0,0,776.32,646c-5.12,10.18-9.65,20.13-13.45,29.58s-7.5,20-11,31.29-6.51,21.92-9,31.57-5,20.46-7.56,32.13a4.54,4.54,0,0,1-1.89,2.74A3.48,3.48,0,0,1,731.43,774Z" transform="translate(-143 -296.46)"/><path class="cls-1" d="M259.36,700.23a4.09,4.09,0,0,0-2.38-2.86h0a3.5,3.5,0,0,0-4.06.89,99.91,99.91,0,0,1-14.62,12.65,38.06,38.06,0,0,1-14.92,6.25,14.68,14.68,0,0,1-9.76-1.36,6,6,0,0,1-3.55-4.45c2.83.16,5.87-.94,9.07-3.38,4-3,6.07-6.38,6.16-10v-.2c.05-2.65-.69-4.51-2.19-5.54-1.72-1.18-4.16-1.1-7.47.25a25,25,0,0,0-8.82,5.95,19.82,19.82,0,0,0-5,10.43,13.38,13.38,0,0,0,2.86,10.26,17.53,17.53,0,0,0,10.3,6,23.53,23.53,0,0,0,5.58.65c11,0,23.74-7.27,37.88-21.76A4.32,4.32,0,0,0,259.36,700.23Zm-46.09.44a6.08,6.08,0,0,1,3.58-2h.35c.71.39.27,1.48-1.29,3.29q-3.53,4-6,2.81A22.92,22.92,0,0,1,213.27,700.67Z" transform="translate(-143 -296.46)"/><path class="cls-1" d="M936.2,665.55h0a3.94,3.94,0,0,0-3.69-1.6c-20.25,2.48-41.52,5.54-63.26,9.12,1.89-7.52,3.73-14.3,5.5-20.26a4.05,4.05,0,0,0-1-3.92,4.18,4.18,0,0,0-3.52-1.38,3.56,3.56,0,0,0-3.11,2.68c-2.19,7.41-4.36,15.58-6.46,24.29-12.37,2.13-23.36,4.08-32.83,5.85a4.44,4.44,0,0,0-2.11,1.3,3.56,3.56,0,0,0-.94,2.38,5.7,5.7,0,0,0,.33,1.92,3.53,3.53,0,0,0,1.63,1.86,4,4,0,0,0,2.55.41c8.69-1.61,18.53-3.36,29.27-5.22-1.15,5.09-2.29,10.46-3.44,16.32a22.14,22.14,0,0,1-29.92-2.6,4,4,0,0,0-2.66-1.39,3.56,3.56,0,0,0-3,1.07c-.86.88-1.69,1.83-2.51,2.83.44-1.7.89-3.42,1.37-5.14a3.91,3.91,0,0,0-1-3.84,4.28,4.28,0,0,0-3.57-1.39,3.39,3.39,0,0,0-3.06,2.72c-.57,2.06-1.09,4.07-1.58,6.07-1.64,2.35-10.52,9.87-15.45,13.28a38.16,38.16,0,0,1-14.93,6.25,14.65,14.65,0,0,1-9.75-1.36,6,6,0,0,1-3.55-4.45c2.82.16,5.86-.94,9.06-3.38,4-3,6.07-6.39,6.16-10v-.2c0-2.65-.69-4.51-2.19-5.54-1.71-1.18-4.15-1.1-7.46.25a25.08,25.08,0,0,0-8.83,5.95,19.73,19.73,0,0,0-5,10.43,13.33,13.33,0,0,0,2.86,10.26,17.53,17.53,0,0,0,10.3,6c10.41,2.51,22.47-2.19,35.93-13.95a127.9,127.9,0,0,0-1.84,17.53,4,4,0,0,0,1.79,3.59,4,4,0,0,0,6.14-2.68,79.11,79.11,0,0,1,4.32-14.27A45,45,0,0,1,822.53,705a30.29,30.29,0,0,0,30.66,4.56,562.45,562.45,0,0,0-7.85,67.32,4,4,0,0,0,1.87,3.49,4.17,4.17,0,0,0,2.25.68,4.32,4.32,0,0,0,1.56-.3,3.65,3.65,0,0,0,2.39-3.31,545.07,545.07,0,0,1,13.69-95.9c22.82-3.81,45.19-7.07,66.57-9.68a3.77,3.77,0,0,0,3.1-2.56A4,4,0,0,0,936.2,665.55ZM768.7,700.67a6.11,6.11,0,0,1,3.58-2h.36c.7.39.27,1.48-1.3,3.29-2.35,2.66-4.34,3.6-6,2.81A22.92,22.92,0,0,1,768.7,700.67Z" transform="translate(-143 -296.46)"/><path class="cls-1" d="M573.35,731.94a3.75,3.75,0,0,1-3-1.49,10.67,10.67,0,0,1-1.5-3.05,11.23,11.23,0,0,1-.37-3.86c.09-1.33.17-2.35.25-3.08s.27-1.87.6-3.55c.38-1.85.52-2.46.6-2.74.48-3,1.39-7.28,2.71-12.76s2.11-8.82,2.34-9.89a4.3,4.3,0,0,1,6.49-2.53,3.39,3.39,0,0,1,1.38,3.86c-.38,1.69-1.05,4.53-2,8.5s-1.64,7-2.11,9.07q-.39,1.91-.69,3.48l1.55-2.1c1.06-1.45,1.82-2.55,2.26-3.27l.09-.15q.34-.45,1-1.35l1.1-1.62c.32-.49.71-1,1.16-1.65s.88-1.17,1.3-1.67.88-1,1.38-1.51a16.36,16.36,0,0,1,1.63-1.43,10.47,10.47,0,0,1,1.74-1.11l.33-.12a15.23,15.23,0,0,1,3.68-.52,7.36,7.36,0,0,1,3.94,1.31,21.62,21.62,0,0,1,3.12,2.43,36.21,36.21,0,0,1,2.83,3.07c1,1.21,1.87,2.34,2.56,3.36l2.11,3.11a25,25,0,0,0,1.82,2.42c3.16,3.88,5.32,5.1,6.6,5.44s3.76.39,8.41-1.31c9.21-3.4,17.51-9.63,24.65-18.52a4.19,4.19,0,0,1,6.92.86,3.78,3.78,0,0,1-.44,3.92,86.55,86.55,0,0,1-7.12,7.75,80.37,80.37,0,0,1-9.59,7.85,58.24,58.24,0,0,1-10.88,6.16A23.14,23.14,0,0,1,618.79,727a16,16,0,0,1-10.31-5.15c-1.45-1.61-3.39-4-5.79-7s-4.11-5.18-5.17-6.39a12,12,0,0,0-1.7-1.43,5,5,0,0,0-1.23-.68.7.7,0,0,0-.37.07A12.82,12.82,0,0,0,593,707a4.66,4.66,0,0,0-.9.87,10.43,10.43,0,0,0-1,1.3c-.24.4-.69,1.08-1.35,2s-1.09,1.55-1.33,1.87-1.29,2.39-3,5.68a57,57,0,0,1-5.32,8.71c-2,2.69-4,4.14-6,4.44A4.71,4.71,0,0,1,573.35,731.94Z" transform="translate(-143 -296.46)"/><path class="cls-2" d="M480.43,504a.13.13,0,0,0,.11.18c67.68,5.58,107.18-37.94,110.15-89.71,3.9-67.84-11.85-81.4-17.36-103.37a.12.12,0,0,0-.2-.07c-12.83,10.53-55,26.12-79.43,74.73-14.95,29.79-12.33,54.81-11.15,68.3S485.79,491.83,480.43,504Z" transform="translate(-143 -296.46)"/><path class="cls-3" d="M496,505.68a.12.12,0,0,0,0,.24c27.67,4.29,51.59,43.87,89.68,48,37,4,54-8.88,55.23-9.89a.11.11,0,0,0,0-.15c-8.68-16-22.72-73-80.34-62.2a.14.14,0,0,0-.08.05C551.63,493.89,510.69,503.8,496,505.68Z" transform="translate(-143 -296.46)"/><path class="cls-3" d="M429.93,364c-2.76,27.72,7.32,57.06,43.38,56.87a.13.13,0,0,0,.13-.14c-1.9-15.38,4.78-27.13.3-38.33s-25.45-18.21-43.68-18.53A.13.13,0,0,0,429.93,364Z" transform="translate(-143 -296.46)"/><path class="cls-2" d="M472.78,338.41c-5.32,5.18-13.45,21.55,2.43,36.57a.14.14,0,0,0,.21,0c14.8-17.81,5.67-22.62-2.43-36.52A.14.14,0,0,0,472.78,338.41Z" transform="translate(-143 -296.46)"/><path class="cls-1" d="M572.71,479.69a2.54,2.54,0,0,0-2.09,3.36,2.69,2.69,0,0,0,2.9,1.64,59.06,59.06,0,0,1,24.39,2.2.14.14,0,0,1,0,.26c-8.76,1.6-15.59,4.74-22.23,7.81-6.16,2.84-12,5.54-19.36,7.14h0a190.75,190.75,0,0,0-25.76-2,.12.12,0,0,1,0-.24c30.11-10.58,51.22-28.49,62.94-53.52,24.74-52.83.39-123-15.28-148.68a2.54,2.54,0,0,0-3.45-.86c-.34.21-34.65,20.64-63.56,46.2-29.48,26.06-33.32,43.49-32,94.19.24,9.47,1,17.62,1.62,24.81,2.7,30,3.82,42.39-39,65.13h0a2.53,2.53,0,1,0,2.37,4.46c25-13.18,47.17-28.93,66-52.43l0,0c7-4.38,17-6.36,27.51-8.44,15.45-3.06,32.5-6.45,46.18-17.72a.13.13,0,0,1,.2.17c-15.51,25.32-43,41.72-81.75,48.87-2.54.38-5.08.79-7.64,1.28a2.57,2.57,0,0,0-.67.25l-.12.06a2.71,2.71,0,0,0-.59.47l-.08.1a2.77,2.77,0,0,0-.4.66s0,.06,0,.08a2.44,2.44,0,0,0-.12,1.34,2.63,2.63,0,0,0,.09.3.49.49,0,0,0,0,.11,2.52,2.52,0,0,0,.38.68l.07.08a2.34,2.34,0,0,0,.59.5l.09.05a2.58,2.58,0,0,0,.76.28h0c17.73,3.1,29.71,15.33,41.3,27.16,10.07,10.27,19.57,20,32.49,24.14,9.6,3.1,20.58,4.29,31.36,4.29,21.27,0,41.73-4.61,49.19-8.17a2.62,2.62,0,0,0,1.48-2.73C643.66,504.54,612.4,475.11,572.71,479.69ZM548,407.34v0c10.83-20.47,21.24-28.48,29.74-35,6.4-4.9,12.1-9.28,16.1-17.6a.13.13,0,0,1,.25,0,199.38,199.38,0,0,1,4.18,28.11.16.16,0,0,1,0,.09c-8.36,12.13-26.12,23.12-40.55,32-6.32,3.91-12,7.39-16.34,10.6a.13.13,0,0,1-.19-.16Q544.75,416.84,548,407.34Zm44.66-58.68a.25.25,0,0,1,0,.08C589,359.43,583.1,364,575.71,369.65c-6.64,5.08-14.4,11-22.62,22.78a.13.13,0,0,1-.24-.09c3.16-10.5,6.87-23.37,9.54-35.44a2.69,2.69,0,0,0-1.34-3,2.53,2.53,0,0,0-3.55,1.75c-3.34,15.16-7.87,30.65-12,43.29,0,.14-.25.08-.25-.07.21-14.1-2.26-24-4.52-33-2.79-11.12-5.41-21.66-2.48-38.25a.15.15,0,0,1,.06-.09c14.76-11,28.11-19.63,34.66-23.72a.13.13,0,0,1,.19.14c-1.39,6.27-3.51,16.83-6,22.86a1.69,1.69,0,0,0,.92,2.2,1.63,1.63,0,0,0,.64.13,1.7,1.7,0,0,0,1.56-1.05c2.5-6.13,4.59-16.39,6-22.8a.13.13,0,0,1,.25,0C582,315.5,588.22,330.92,592.67,348.66Zm-78.22-1.87c6.44-5.69,13.16-11.13,19.7-16.14a.13.13,0,0,1,.21.13c-2.06,15.13.46,25.25,3.12,35.87,3,11.92,6.07,24.22,3.49,45.4v0a244.22,244.22,0,0,1-23.83,48.57.13.13,0,0,1-.24-.08c1-22.44-4.39-37.61-9.6-52.3-5-14.17-9.76-27.59-7.71-46.29a.11.11,0,0,1,0-.07A127,127,0,0,1,514.45,346.79Zm-1.37,119.87c-2.79,4-5.67,7.74-8.63,11.32a.13.13,0,0,1-.23-.09c-.55-24.14-5.22-38.59-9.76-52.59-3.61-11.17-7-21.76-7.83-36.49v0a61.87,61.87,0,0,1,8.89-21.28.13.13,0,0,1,.24.09c-.66,16.4,3.74,28.8,8.36,41.82,5.56,15.68,11.28,31.92,9,57.2A.09.09,0,0,1,513.08,466.66Zm-30.18,33.2a.13.13,0,0,1-.2-.16c5.49-10.9,4.44-22.53,3-38.14-.64-7.12-1.37-15.19-1.61-24.49-.35-13.76-.34-24.9.46-34.38a.13.13,0,0,1,.26,0,173.67,173.67,0,0,0,6.41,23.63c4.71,14.54,9.56,29.6,9.63,55.77a.14.14,0,0,1,0,.09A176.77,176.77,0,0,1,482.9,499.86ZM537,467.4c-7.85,1.56-15.4,3.07-21.84,5.57a.12.12,0,0,1-.14-.19,219.87,219.87,0,0,0,23-40s0,0,0,0c4.17-4.25,12.62-9.47,21.47-14.93,13.33-8.23,29.46-18.2,38.9-29.48a.13.13,0,0,1,.23.08c.74,18.3-1.55,36.91-8.85,53.6,0,0,0,0,0,0C575.87,459.67,555.26,463.78,537,467.4Zm106.71,76.48a.14.14,0,0,1-.24.11c-2.22-2.71-4.77-5.3-7.14-6.44a1.68,1.68,0,1,0-1.46,3c3.27,1.58,7.57,7.32,10.12,11.18a.12.12,0,0,1-.06.19,98.63,98.63,0,0,1-17.15,4.35.13.13,0,0,1-.13,0c-1.33-2-3.58-5.93-5.63-9.56-4.21-7.41-9.35-16.47-14.35-23.24-.08-.11.06-.25.18-.18a75,75,0,0,1,16.52,11.31,2.53,2.53,0,0,0,3.49-3.66c-8.29-7.9-23.72-16.43-43.46-22.51a.13.13,0,0,1,0-.25,121.25,121.25,0,0,0,14.16-4.75c6.51-2.49,12.69-4.84,19.23-5.52a.1.1,0,0,1,.1,0C630.1,508.25,639.19,524,643.67,543.88Zm-29.25,14.2a.19.19,0,0,1-.1,0c-7.43-5.46-11.84-16.59-16.12-27.38-2-5-3.92-9.86-6.11-14.15a.13.13,0,0,1,.17-.18q3.9,1.47,7.49,3l0,0c6,5.64,13.83,19.36,19.26,28.94,2.18,3.85,3.71,6.53,4.87,8.38a.12.12,0,0,1-.1.19C620.83,557.38,617.68,557.77,614.42,558.08ZM577.07,498c8.34-3.86,16.25-7.51,27.84-8.4H605a56.89,56.89,0,0,1,8.86,5.2.13.13,0,0,1-.05.23,98.45,98.45,0,0,0-16.46,5.2c-6.66,2.55-13.52,5.16-20.91,5.88h0c-3.8-1-7.74-1.85-11.78-2.63a.12.12,0,0,1,0-.24A134.5,134.5,0,0,0,577.07,498ZM539.56,531.9c-9.54-9.73-19.33-19.72-32.45-25.2a.13.13,0,0,1,0-.25,181.45,181.45,0,0,1,37.22-.68.15.15,0,0,1,.09,0c6.19,7.14,11.71,22.38,16.22,34.87,1.62,4.49,3.1,8.6,4.46,11.89a.13.13,0,0,1-.18.16C555.56,548.22,547.75,540.26,539.56,531.9Zm30.29,22.82-.1-.07c-1.66-3.35-3.66-8.86-5.91-15.11-4.08-11.31-9-24.81-14.67-33.1a.13.13,0,0,1,.13-.2,182,182,0,0,1,37.76,8.24.24.24,0,0,1,.08.06c3,4.87,5.39,11,7.93,17.37,3.9,9.84,7.91,19.94,14.35,26.35a.13.13,0,0,1-.08.22C596.09,559.31,581.72,558.59,569.85,554.72Z" transform="translate(-143 -296.46)"/><path class="cls-1" d="M607,529.24a6.64,6.64,0,0,1-1.47-1.49,19,19,0,0,0,3.37-9.73,6.28,6.28,0,0,0,4.59-6.45l2.67-1.22a.51.51,0,1,0-.3-1l-2.5.4a16.09,16.09,0,0,0-.73-3A13.21,13.21,0,0,0,608,501l1.36-2a.51.51,0,0,0-.79-.63l-2,1.7a7.48,7.48,0,0,0-8.54.2c-4.15-1.8-9.23-1.64-14.28.24a10.13,10.13,0,0,1-.12-1.89.66.66,0,0,0-.59-.74.67.67,0,0,0-.75.59,10.73,10.73,0,0,0,0,2.63,26.62,26.62,0,0,0-5.1,2.88,14,14,0,0,1-2.17-2.14.67.67,0,0,0-.92-.24.68.68,0,0,0-.24.93,10.72,10.72,0,0,0,2.06,2.41c-.58.46-1.14.94-1.69,1.45a13.68,13.68,0,0,0-2.42,3.12,6.51,6.51,0,0,0-3.57-.31.67.67,0,0,0-.46.83.64.64,0,0,0,.37.43c.42.2,1.29.06,2.9.53-4.1,8.55-3,22.74,11.15,25.85a23.67,23.67,0,0,0,8.14.46,8.75,8.75,0,0,1,.31,2.52.68.68,0,0,0,.39.7l.19.05A.68.68,0,0,0,592,540a9.41,9.41,0,0,0-.13-2.93,20.39,20.39,0,0,0,6.57-2.5,8.37,8.37,0,0,0,1.24,2.41.61.61,0,0,0,.24.19.68.68,0,0,0,.7-.08.67.67,0,0,0,.11-1s-.43-1.06-.87-2.5a19.41,19.41,0,0,0,4.7-4.55,5,5,0,0,0,1.81,1.33h0a.68.68,0,0,0,.88-.29A.69.69,0,0,0,607,529.24Z" transform="translate(-143 -296.46)"/><path class="cls-4" d="M577.94,522.62a4.69,4.69,0,0,1-3.7-2.47c-2-3.63,3.29-7,5.69-6.72s5.5,2.78,3.17,6.61c-.07.11,0,.23.15.16a157.53,157.53,0,0,0,19.75-12c.67-.5.94-.89.37-1.66a12.39,12.39,0,0,0-4.59-3.69,13,13,0,0,0-8.19-1.42c-.25.06-.13.17-.06.23,2.22,1.84,1,4.24-1.74,4.65-3.13.47-6-.69-6-2.67,0-.09,0-.23-.27-.14a17.88,17.88,0,0,0-7.68,5.65,17.59,17.59,0,0,0-3.45,15.48c.33,1.21,1,.88,1.31.74q2.75-1.25,5.27-2.48C578.1,522.81,578.1,522.64,577.94,522.62Z" transform="translate(-143 -296.46)"/><path class="cls-4" d="M604.14,510.28a182.15,182.15,0,0,1-27.66,15.92c-.15.07-.33.24-.1.3,1.49.36,2.87,1.11,3.17,2.87a3.51,3.51,0,0,1-1.44,3.53c-.07.06-.28.13,0,.29a14.92,14.92,0,0,0,5,1.84c.41.08,1.25.2,1.78.26.27,0,.22-.14.2-.23a4.29,4.29,0,0,1,1.4-3.32,7,7,0,0,1,8.23-1.69,3.16,3.16,0,0,1,2,3.12c0,.06,0,.18.19.09,4.18-2,6.58-5.73,8.21-8.74a16.93,16.93,0,0,0,.63-13.8C605.42,509.93,604.91,509.73,604.14,510.28Zm-7.46,13.35c-2.2-2.15.74-6.61,2.74-7.24s5,1.05,4.24,3.41C602.8,522.51,598.88,525.78,596.68,523.63Z" transform="translate(-143 -296.46)"/></svg>