<?xml version="1.0" encoding="utf-8"?>
<!-- Generator: Adobe Illustrator 18.0.0, SVG Export Plug-In . SVG Version: 6.00 Build 0)  -->
<!DOCTYPE svg PUBLIC "-//W3C//DTD SVG 1.1//EN" "http://www.w3.org/Graphics/SVG/1.1/DTD/svg11.dtd">
<svg version="1.1" id="Calque_1" xmlns="http://www.w3.org/2000/svg" xmlns:xlink="http://www.w3.org/1999/xlink" x="0px" y="0px"
	 viewBox="0 0 112 140" enable-background="new 0 0 112 140" xml:space="preserve">
<g>
	<path fill="#FFFFFF" stroke="#000000" stroke-width="2" stroke-miterlimit="10" d="M14.4,100.8l0-72c0-6.6,5.4-12,12-12h61.5
		c6.6,0,12,5.4,12,12l0,72c0,6.6-5.4,12-12,12H26.4C19.8,112.8,14.4,107.4,14.4,100.8z"/>
	
		<rect x="22.6" y="30.3" fill="#EDD3E5" stroke="#000000" stroke-width="2" stroke-linecap="round" stroke-linejoin="round" stroke-miterlimit="10" width="69.1" height="69.1"/>
</g>
<g>
	
		<path fill="#FFFFFF" stroke="#000000" stroke-width="2" stroke-linecap="round" stroke-linejoin="round" stroke-miterlimit="10" d="
		M104.4,78c0,0-0.8,1.3-0.8,1.3c1.3,3.9,3.5,5.5,5,7.1c-2.2,0-5.8,0.7-9.7-1.3c-2.9,2.8-6.5,5-10.6,6.3c-14.9,4.9-31-3.1-35.9-18
		c-4.9-14.9,3.1-31,18-35.9s31,3.1,35.9,18C108.9,63.3,108,71.3,104.4,78z"/>
	
		<path fill="#FFFFFF" stroke="#000000" stroke-width="2" stroke-linecap="round" stroke-linejoin="round" stroke-miterlimit="10" d="
		M103.6,79.4c0.3-0.5,0.6-0.9,0.8-1.4C104.2,78.3,103.9,78.8,103.6,79.4C103.5,79.3,103.6,79.4,103.6,79.4z"/>
</g>
</svg>
