<?xml version="1.0" encoding="utf-8"?>
<!-- Generator: Adobe Illustrator 18.0.0, SVG Export Plug-In . SVG Version: 6.00 Build 0)  -->
<!DOCTYPE svg PUBLIC "-//W3C//DTD SVG 1.1//EN" "http://www.w3.org/Graphics/SVG/1.1/DTD/svg11.dtd">
<svg version="1.1" id="Calque_1" xmlns="http://www.w3.org/2000/svg" xmlns:xlink="http://www.w3.org/1999/xlink" x="0px" y="0px"
	 viewBox="0 0 112 140" enable-background="new 0 0 112 140" xml:space="preserve">
<g>
	
		<path fill="#FFFFFF" stroke="#000000" stroke-width="2" stroke-linecap="round" stroke-linejoin="round" stroke-miterlimit="10" d="
		M14.8,101l0-72c0-6.6,5.4-12,12-12h61.5c6.6,0,12,5.4,12,12l0,72c0,6.6-5.4,12-12,12H26.8C20.2,113,14.8,107.6,14.8,101z"/>
	
		<rect x="23" y="30.5" fill="#EDD3E5" stroke="#000000" stroke-width="2" stroke-linecap="round" stroke-linejoin="round" stroke-miterlimit="10" width="69.1" height="69.1"/>
</g>
<g>
	<circle fill="#FFFFFF" stroke="#000000" stroke-width="2" stroke-miterlimit="10" cx="57.5" cy="65" r="37.9"/>
	<path fill="none" stroke="#000000" stroke-width="2" stroke-miterlimit="10" d="M60.7,102.7"/>
	<path fill="none" stroke="#000000" stroke-width="2" stroke-miterlimit="10" d="M38.6,69.5"/>
	<path fill="none" stroke="#000000" stroke-width="2" stroke-miterlimit="10" d="M38.6,64.4"/>
	<path fill="none" stroke="#000000" stroke-width="2" stroke-miterlimit="10" d="M45.8,29.1c-20.7,19.4-20.7,52.3,0,71.8"/>
	<path fill="none" stroke="#000000" stroke-width="2" stroke-miterlimit="10" d="M54.9,27.3C42.8,51,42.8,79,54.9,102.7"/>
	<path fill="none" stroke="#000000" stroke-width="2" stroke-miterlimit="10" d="M76.4,69.5"/>
	<path fill="none" stroke="#000000" stroke-width="2" stroke-miterlimit="10" d="M76.4,64.4"/>
	<polyline fill="#FFFFFF" stroke="#000000" stroke-width="2" stroke-miterlimit="10" points="95.1,65 57.5,65 57.5,65 19.9,65 	"/>
	<path fill="none" stroke="#000000" stroke-width="2" stroke-miterlimit="10" d="M90.3,83.2C80,78,68.7,75.4,57.5,75.4
		c-11.2,0-22.5,2.6-32.8,7.9"/>
	<path fill="none" stroke="#000000" stroke-width="2" stroke-miterlimit="10" d="M90.3,46.4c-10.3,5.2-21.5,7.9-32.8,7.9
		c-11.2,0-22.5-2.6-32.8-7.9"/>
	<path fill="none" stroke="#000000" stroke-width="2" stroke-miterlimit="10" d="M81.9,36c-10.3,5.2-13.1,6.3-24.4,6.3
		c-11.2,0-14.1-1-24.4-6.3"/>
	<path fill="none" stroke="#000000" stroke-width="2" stroke-miterlimit="10" d="M69.2,29.1c20.7,19.4,20.7,52.3,0,71.8"/>
	<path fill="none" stroke="#000000" stroke-width="2" stroke-miterlimit="10" d="M60.1,27.3c12.1,23.7,12.1,51.7,0,75.4"/>
	<path fill="none" stroke="#000000" stroke-width="2" stroke-miterlimit="10" d="M81.9,94.3C71.6,89,68.7,88,57.5,88
		c-11.2,0-14.1,1-24.4,6.3"/>
</g>
</svg>
