<?xml version="1.0" encoding="utf-8"?>
<!-- Generator: Adobe Illustrator 18.0.0, SVG Export Plug-In . SVG Version: 6.00 Build 0)  -->
<!DOCTYPE svg PUBLIC "-//W3C//DTD SVG 1.1//EN" "http://www.w3.org/Graphics/SVG/1.1/DTD/svg11.dtd">
<svg version="1.1" id="Calque_1" xmlns="http://www.w3.org/2000/svg" xmlns:xlink="http://www.w3.org/1999/xlink" x="0px" y="0px"
	 viewBox="0 0 172.4 155.9" enable-background="new 0 0 172.4 155.9" xml:space="preserve">
<path fill="#FFFFFF" stroke="#000000" stroke-width="4" stroke-miterlimit="10" d="M24.5,136.9l0-117.5c0-6.6,5.4-12,12-12h102
	c6.6,0,12,5.4,12,12l0,117.5c0,6.6-5.4,12-12,12h-102C29.9,148.9,24.5,143.5,24.5,136.9z"/>
<rect x="36.6" y="22.6" fill="#E3ADC1" stroke="#000000" stroke-width="4" stroke-miterlimit="10" width="101.8" height="110.9"/>
<g>
	<circle fill="#FFFFFF" stroke="#000000" stroke-width="4" stroke-miterlimit="10" cx="76.9" cy="77.9" r="28.3"/>
	<path fill="none" stroke="#000000" stroke-width="4" stroke-miterlimit="10" d="M48.5,77.9c0,0,24.8-28.3,55.3-8.7"/>
	<circle cx="90.4" cy="77.9" r="14.2"/>
	<path fill="none" stroke="#000000" stroke-width="4" stroke-miterlimit="10" d="M41.6,60.3c3.8-15.2,19.1-24.5,34.3-20.7"/>
	<path fill="none" stroke="#000000" stroke-width="4" stroke-miterlimit="10" d="M100.1,55.1c3.8-15.2,19.1-24.5,34.3-20.7"/>
	<circle fill="#FFFFFF" stroke="#000000" stroke-width="4" stroke-miterlimit="10" cx="135.4" cy="72.7" r="28.3"/>
	<path fill="none" stroke="#000000" stroke-width="4" stroke-miterlimit="10" d="M107,72.7c0,0,24.8-28.3,55.3-8.7"/>
	<circle cx="148.9" cy="72.7" r="14.2"/>
</g>
</svg>
