<?xml version="1.0" encoding="utf-8"?>
<!-- Generator: Adobe Illustrator 18.0.0, SVG Export Plug-In . SVG Version: 6.00 Build 0)  -->
<!DOCTYPE svg PUBLIC "-//W3C//DTD SVG 1.1//EN" "http://www.w3.org/Graphics/SVG/1.1/DTD/svg11.dtd">
<svg version="1.1" id="Calque_1" xmlns="http://www.w3.org/2000/svg" xmlns:xlink="http://www.w3.org/1999/xlink" x="0px" y="0px"
	 viewBox="0 0 112 140" enable-background="new 0 0 112 140" xml:space="preserve">
<g>
	
		<path fill="#FFFFFF" stroke="#000000" stroke-width="2" stroke-linecap="round" stroke-linejoin="round" stroke-miterlimit="10" d="
		M14.8,100.8l0-72c0-6.6,5.4-12,12-12h61.5c6.6,0,12,5.4,12,12l0,72c0,6.6-5.4,12-12,12H26.8C20.2,112.8,14.8,107.4,14.8,100.8z"/>
	
		<rect x="23" y="30.3" fill="#EDD3E5" stroke="#000000" stroke-width="2" stroke-linecap="round" stroke-linejoin="round" stroke-miterlimit="10" width="69.1" height="69.1"/>
</g>
<g>
	<g>
		
			<path fill="#FFFFFF" stroke="#000000" stroke-width="2" stroke-linecap="round" stroke-linejoin="round" stroke-miterlimit="10" d="
			M49.6,87.5c0,0-2.9-13.4-16.6-12.5c-1.6,0-3.8,1-4.6,2.3c-1.1,1.8-0.8,3.9,0.3,5c1.7,1.7,3.2,1.9,4.3,2.3
			c13,3.5,17.1,44.7,17.1,44.7l29.1-6.3l0-11.5c0.3-4.8,5.7-8.4,5.7-13.2c0,0,0,0,0,0l0-10.9l0-0.6l0,0l0,0.6l0-14.2
			c0-2.8-2-5-4.4-5c-2.4,0-4.4,2.3-4.4,5v12.7V69c0-2.8-2-5-4.4-5s-4.4,2.3-4.4,5l0,13.8l0-17c0-2.8-2-5-4.4-5c-2.4,0-4.4,2.3-4.4,5
			"/>
		
			<path fill="#FFFFFF" stroke="#000000" stroke-width="2" stroke-linecap="round" stroke-linejoin="round" stroke-miterlimit="10" d="
			M58.4,65.8l0,13.9l0-35.7c0-2.8-2-5-4.4-5c-2.4,0-4.4,2.3-4.4,5l0,43.6"/>
	</g>
	
		<path fill="#FFFFFF" stroke="#000000" stroke-width="2" stroke-linecap="round" stroke-linejoin="round" stroke-miterlimit="10" d="
		M78.1,130.4l-28.2,0c-3.1,0-5.6-2.5-5.6-5.6v0c0-3.1,2.5-5.6,5.6-5.6l28.2,0c3.1,0,5.6,2.5,5.6,5.6v0
		C83.7,127.9,81.2,130.4,78.1,130.4z"/>
</g>
</svg>
