<?xml version="1.0" encoding="utf-8"?>
<!-- Generator: Adobe Illustrator 18.0.0, SVG Export Plug-In . SVG Version: 6.00 Build 0)  -->
<!DOCTYPE svg PUBLIC "-//W3C//DTD SVG 1.1//EN" "http://www.w3.org/Graphics/SVG/1.1/DTD/svg11.dtd">
<svg version="1.1" id="Calque_1" xmlns="http://www.w3.org/2000/svg" xmlns:xlink="http://www.w3.org/1999/xlink" x="0px" y="0px"
	 viewBox="0 0 112 140" enable-background="new 0 0 112 140" xml:space="preserve">
<g>
	
		<path fill="#FFFFFF" stroke="#000000" stroke-width="2" stroke-linecap="round" stroke-linejoin="round" stroke-miterlimit="10" d="
		M14.8,101l0-72c0-6.6,5.4-12,12-12h61.5c6.6,0,12,5.4,12,12l0,72c0,6.6-5.4,12-12,12H26.8C20.2,113,14.8,107.6,14.8,101z"/>
	
		<rect x="23" y="30.5" fill="#EDD3E5" stroke="#000000" stroke-width="2" stroke-linecap="round" stroke-linejoin="round" stroke-miterlimit="10" width="69.1" height="69.1"/>
</g>
<path fill="none" stroke="#000000" stroke-width="2" stroke-linecap="round" stroke-miterlimit="10" d="M66.3,48.3
	c3.5-8.6,12.8-13.5,22.1-11.2"/>
<circle fill="#FFFFFF" stroke="#000000" stroke-width="2" stroke-miterlimit="10" cx="88.4" cy="61.4" r="19"/>
<path fill="none" stroke="#000000" stroke-width="2" stroke-miterlimit="10" d="M69.4,61.4c0,0,16.6-18.9,37-5.8"/>
<circle stroke="#000000" stroke-width="0.5" stroke-miterlimit="10" cx="97.4" cy="61.4" r="9.5"/>
<path fill="none" stroke="#000000" stroke-width="2" stroke-linecap="round" stroke-miterlimit="10" d="M27.1,52.5
	c3.5-8.6,12.8-13.5,22.1-11.2"/>
<circle fill="#FFFFFF" stroke="#000000" stroke-width="2" stroke-miterlimit="10" cx="49.1" cy="65.5" r="19"/>
<path fill="none" stroke="#000000" stroke-width="2" stroke-miterlimit="10" d="M30.2,65.5c0,0,16.6-18.9,37-5.8"/>
<circle stroke="#000000" stroke-width="0.5" stroke-miterlimit="10" cx="58.2" cy="65.5" r="9.5"/>
</svg>
