<?xml version="1.0" encoding="utf-8"?>
<!-- Generator: Adobe Illustrator 18.0.0, SVG Export Plug-In . SVG Version: 6.00 Build 0)  -->
<!DOCTYPE svg PUBLIC "-//W3C//DTD SVG 1.1//EN" "http://www.w3.org/Graphics/SVG/1.1/DTD/svg11.dtd">
<svg version="1.1" id="Calque_1" xmlns="http://www.w3.org/2000/svg" xmlns:xlink="http://www.w3.org/1999/xlink" x="0px" y="0px"
	 viewBox="0 0 112 140" enable-background="new 0 0 112 140" xml:space="preserve">
<g>
	
		<path fill="#FFFFFF" stroke="#000000" stroke-width="2" stroke-linecap="round" stroke-linejoin="round" stroke-miterlimit="10" d="
		M14.8,101l0-72c0-6.6,5.4-12,12-12h61.5c6.6,0,12,5.4,12,12l0,72c0,6.6-5.4,12-12,12H26.8C20.2,113,14.8,107.6,14.8,101z"/>
	
		<rect x="23" y="30.5" fill="#EDD3E5" stroke="#000000" stroke-width="2" stroke-linecap="round" stroke-linejoin="round" stroke-miterlimit="10" width="69.1" height="69.1"/>
</g>
<g>
	
		<path fill="#FFFFFF" stroke="#000000" stroke-width="2" stroke-linecap="round" stroke-linejoin="round" stroke-miterlimit="10" d="
		M78,94c1.1-4.5,7-7,7.8-11.5c0,0,2.4-5.9,8.3-8.5l0,0c1-0.6,2.4-1.2,3.6-3.2c0.8-1.4,0.6-3.4-0.9-4.8c-1.1-1-3.5-1.5-5-1.2
		c-7,1.2-10.2,5.5-11.7,9.3l-1,3.8l7.3-41.1c0.3-1.6-0.3-3.2-1.5-4.3c-1.2-1.1-2.9-1.9-4.8-1.2c-1.4,0.6-2.4,1.9-2.7,3.4l-6,33.6
		l0.4-2.2l5.9-33.1c0.3-1.6-0.3-3.2-1.5-4.3c-1.2-1.1-2.9-1.9-4.8-1.2c-1.4,0.6-2.4,1.9-2.7,3.4l-6,33.6l-0.4,2.2l5.9-33.1
		c0.3-1.6-0.3-3.2-1.5-4.3c-1.2-1.1-2.9-1.9-4.8-1.2c-1.4,0.6-2.4,1.9-2.7,3.4l-6,33.6L53,67.6l3.6-19.9c0.3-1.6-0.3-3.2-1.5-4.3
		c-1.2-1.1-2.9-1.9-4.8-1.2c-1.4,0.6-2.4,1.9-2.7,3.4l-3.9,22l0,0l-0.1,0.5l-1.8,10.3c0,0,0,0,0,0c-0.8,4.5,3.9,8.8,3.4,13.4
		l-1.9,10.9l30.2,6.3C74.5,104.6,77.2,98.5,78,94z"/>
	
		<path fill="#FFFFFF" stroke="#000000" stroke-width="2" stroke-linecap="round" stroke-linejoin="round" stroke-miterlimit="10" d="
		M69.7,118.6l-27.2-4.8c-3-0.5-5-3.4-4.5-6.3v0c0.5-3,3.4-4.9,6.4-4.4l27.2,4.8c3,0.5,5,3.4,4.5,6.3l0,0
		C75.6,117.1,72.7,119.1,69.7,118.6z"/>
</g>
<g>
	
		<path fill="#FFFFFF" stroke="#000000" stroke-width="2" stroke-linecap="round" stroke-linejoin="round" stroke-miterlimit="10" d="
		M35.3,102.1c-0.7-4.6-6.3-7.7-6.7-12.3c0,0-1.9-6.2-7.5-9.3l0,0c-0.9-0.7-2.2-1.4-3.2-3.5c-0.7-1.4-0.3-3.5,1.3-4.8
		c1.2-1,3.5-1.2,5-0.7c6.8,1.9,9.6,6.5,10.7,10.4l0.7,3.9l-3.7-42.2c-0.1-1.6,0.6-3.2,1.8-4.2c1.3-1,3-1.7,4.8-0.7
		c1.3,0.7,2.2,2.1,2.3,3.7l3,34.5l-0.2-2.3l-3-34c-0.1-1.6,0.6-3.2,1.8-4.2c1.3-1,3-1.7,4.8-0.7c1.3,0.7,2.2,2.1,2.3,3.7l3,34.5
		l0.2,2.3l-3-34c-0.1-1.6,0.6-3.2,1.8-4.2c1.3-1,3-1.7,4.8-0.7c1.3,0.7,2.2,2.1,2.3,3.7l3,34.5l0.2,2.4l-1.8-20.5
		c-0.1-1.6,0.6-3.2,1.8-4.2c1.3-1,3-1.7,4.8-0.7c1.3,0.7,2.2,2.1,2.3,3.7l2,22.6l0,0l0,0.6l0.9,10.6c0,0,0,0,0,0
		c0.4,4.6-4.6,8.6-4.4,13.3l1,11.2l-30.1,3.6C37.9,113.2,35.7,106.8,35.3,102.1z"/>
	
		<path fill="#FFFFFF" stroke="#000000" stroke-width="2" stroke-linecap="round" stroke-linejoin="round" stroke-miterlimit="10" d="
		M41.4,127.7l27.1-2.4c3-0.3,5.2-3,5-6v0c-0.3-3-2.9-5.3-5.9-5l-27.1,2.4c-3,0.3-5.2,3-5,6l0,0C35.7,125.7,38.4,128,41.4,127.7z"/>
</g>
<g>
	<path fill="none" stroke="#232322" stroke-width="2" stroke-linecap="round" stroke-miterlimit="10" d="M52.3,19.5"/>
	<path fill="none" stroke="#232322" stroke-width="2" stroke-linecap="round" stroke-miterlimit="10" d="M65,18.8"/>
	<path fill="none" stroke="#232322" stroke-width="2" stroke-linecap="round" stroke-miterlimit="10" d="M64.7,4.5"/>
	<path fill="none" stroke="#232322" stroke-width="2" stroke-linecap="round" stroke-miterlimit="10" d="M64.3,19.8"/>
</g>
<g>
	
		<line fill="none" stroke="#000000" stroke-width="2" stroke-linecap="round" stroke-miterlimit="10" x1="57.4" y1="4.5" x2="57.4" y2="16.6"/>
	
		<line fill="none" stroke="#000000" stroke-width="2" stroke-linecap="round" stroke-miterlimit="10" x1="42.5" y1="7.3" x2="46" y2="19"/>
	
		<line fill="none" stroke="#000000" stroke-width="2" stroke-linecap="round" stroke-miterlimit="10" x1="28.4" y1="13.2" x2="35" y2="23.7"/>
	
		<line fill="none" stroke="#000000" stroke-width="2" stroke-linecap="round" stroke-miterlimit="10" x1="72.2" y1="7.3" x2="68.8" y2="19"/>
	
		<line fill="none" stroke="#000000" stroke-width="2" stroke-linecap="round" stroke-miterlimit="10" x1="86.3" y1="13.2" x2="79.7" y2="23.7"/>
</g>
</svg>
