<?xml version="1.0" encoding="utf-8"?>
<!-- Generator: Adobe Illustrator 18.0.0, SVG Export Plug-In . SVG Version: 6.00 Build 0)  -->
<!DOCTYPE svg PUBLIC "-//W3C//DTD SVG 1.1//EN" "http://www.w3.org/Graphics/SVG/1.1/DTD/svg11.dtd">
<svg version="1.1" id="Calque_1" xmlns="http://www.w3.org/2000/svg" xmlns:xlink="http://www.w3.org/1999/xlink" x="0px" y="0px"
	 viewBox="0 0 112 140" enable-background="new 0 0 112 140" xml:space="preserve">
<path fill="none" stroke="#000000" stroke-width="2" stroke-miterlimit="10" d="M108.3,56.3L85,33.2c0,0-1.9-1.2-1.9,2.8v5.7"/>
<path fill="#FFFFFF" stroke="#000000" stroke-width="2" stroke-miterlimit="10" d="M14.8,101l0-72c0-6.6,5.4-12,12-12h61.5
	c6.6,0,12,5.4,12,12l0,72c0,6.6-5.4,12-12,12H26.8C20.2,113,14.8,107.6,14.8,101z"/>
<rect x="23" y="30.5" fill="#EDD3E5" stroke="#000000" stroke-width="2" stroke-linecap="round" stroke-linejoin="round" stroke-miterlimit="10" width="69.1" height="69.1"/>
<path fill="none" stroke="#000000" stroke-width="2" stroke-linecap="round" stroke-miterlimit="10" d="M28.9,71.6L4.6,47.5
	c0,0-1.9-1.2-1.9,2.8v5.7"/>
<path fill="none" stroke="#000000" stroke-width="2.3171" stroke-miterlimit="10" d="M65.4,67.2c0,0,3.1-5.6,7.2-1.3"/>
<path fill="none" stroke="#000000" stroke-width="2" stroke-miterlimit="10" d="M72.7,61.2c0,0-3.5,5.6-7.6,1.3"/>
<path fill="#FFFFFF" stroke="#000000" stroke-width="2" stroke-miterlimit="10" d="M35.6,91.2l24.3-4.3c3.8-0.7,7-4.4,7-8.2v-12
	c0-3.8-3.1-6.4-7-5.7l-24.3,4.3c-3.8,0.7-7,4.4-7,8.2l0,12C28.7,89.3,31.8,91.8,35.6,91.2z"/>
<path fill="#FFFFFF" stroke="#000000" stroke-width="2" stroke-miterlimit="10" d="M78,83.7l24.3-4.3c3.8-0.7,7-4.4,7-8.2l0-12
	c0-3.8-3.1-6.4-7-5.7L78,57.8c-3.8,0.7-7,4.4-7,8.2l0,12C71.1,81.8,74.2,84.4,78,83.7z"/>
<circle cx="97.3" cy="71" r="9.6"/>
<circle cx="54.9" cy="78.5" r="9.6"/>
</svg>
