<?xml version="1.0" encoding="utf-8"?>
<!-- Generator: Adobe Illustrator 18.0.0, SVG Export Plug-In . SVG Version: 6.00 Build 0)  -->
<!DOCTYPE svg PUBLIC "-//W3C//DTD SVG 1.1//EN" "http://www.w3.org/Graphics/SVG/1.1/DTD/svg11.dtd">
<svg version="1.1" id="Calque_1" xmlns="http://www.w3.org/2000/svg" xmlns:xlink="http://www.w3.org/1999/xlink" x="0px" y="0px"
	 viewBox="0 0 184.2 197.9" enable-background="new 0 0 184.2 197.9" xml:space="preserve">
<path fill="#FFFFFF" stroke="#000000" stroke-width="4" stroke-miterlimit="10" d="M36,161.4l0-117.5c0-6.6,5.4-12,12-12h102
	c6.6,0,12,5.4,12,12l0,117.5c0,6.6-5.4,12-12,12H48C41.4,173.4,36,168,36,161.4z"/>
<rect x="48.1" y="47.2" fill="#A9CDAB" stroke="#000000" stroke-width="4" stroke-miterlimit="10" width="101.8" height="110.9"/>
<circle fill="#FFFFFF" stroke="#000000" stroke-width="4" stroke-miterlimit="10" cx="109.8" cy="103.9" r="28.3"/>
<path fill="none" stroke="#000000" stroke-width="4" stroke-miterlimit="10" d="M138.2,103.9c0,0-24.8-28.3-55.3-8.7"/>
<circle cx="96.3" cy="103.9" r="14.2"/>
<path fill="none" stroke="#000000" stroke-width="4" stroke-miterlimit="10" d="M145.1,86.3c-3.8-15.2-19.1-24.5-34.3-20.7"/>
<path fill="none" stroke="#000000" stroke-width="4" stroke-miterlimit="10" d="M86.6,81.1c-3.8-15.2-19.1-24.5-34.3-20.7"/>
<circle fill="#FFFFFF" stroke="#000000" stroke-width="4" stroke-miterlimit="10" cx="51.3" cy="98.7" r="28.3"/>
<path fill="none" stroke="#000000" stroke-width="4" stroke-miterlimit="10" d="M79.7,98.7c0,0-24.8-28.3-55.3-8.7"/>
<circle cx="37.8" cy="98.7" r="14.2"/>
</svg>
